<svg xmlns="http://www.w3.org/2000/svg" xmlns:xlink="http://www.w3.org/1999/xlink" width="689pt" height="3368" viewBox="0 0 689 2525.75"><g id="graph0" class="graph" transform="scale(1 1) rotate(0) translate(4 2521.75)"><title>structs</title><polygon fill="#fff" stroke="none" points="-4 4 -4 -2521.75 685 -2521.75 685 4 -4 4"/><g id="node1" class="node"><title>_sqlx_migrations</title><polygon fill="none" stroke="#000" points="71.75 -141.25 71.75 -163.75 182 -163.75 182 -141.25 71.75 -141.25"/><text x="77" y="-148.45" font-family="Times,serif" font-size="14" font-weight="bold" text-anchor="start">_sqlx_migrations</text><polygon fill="none" stroke="#000" points="71.75 -116.5 71.75 -141.25 92 -141.25 92 -116.5 71.75 -116.5"/><text x="74.75" y="-124.95" font-family="Times,serif" font-size="14" text-anchor="start">🔑</text><polygon fill="none" stroke="#000" points="92 -116.5 92 -141.25 182 -141.25 182 -116.5 92 -116.5"/><text x="117.12" y="-123.83" font-family="Times,serif" font-size="14" text-anchor="start">version</text><polygon fill="none" stroke="#000" points="71.75 -94 71.75 -116.5 92 -116.5 92 -94 71.75 -94"/><polygon fill="none" stroke="#000" points="92 -94 92 -116.5 182 -116.5 182 -94 92 -94"/><text x="107" y="-100.2" font-family="Times,serif" font-size="14" text-anchor="start">description</text><polygon fill="none" stroke="#000" points="71.75 -71.5 71.75 -94 92 -94 92 -71.5 71.75 -71.5"/><polygon fill="none" stroke="#000" points="92 -71.5 92 -94 182 -94 182 -71.5 92 -71.5"/><text x="104" y="-77.7" font-family="Times,serif" font-size="14" text-anchor="start">installed_on</text><polygon fill="none" stroke="#000" points="71.75 -49 71.75 -71.5 92 -71.5 92 -49 71.75 -49"/><polygon fill="none" stroke="#000" points="92 -49 92 -71.5 182 -71.5 182 -49 92 -49"/><text x="116.75" y="-55.2" font-family="Times,serif" font-size="14" text-anchor="start">success</text><polygon fill="none" stroke="#000" points="71.75 -26.5 71.75 -49 92 -49 92 -26.5 71.75 -26.5"/><polygon fill="none" stroke="#000" points="92 -26.5 92 -49 182 -49 182 -26.5 92 -26.5"/><text x="109.62" y="-32.7" font-family="Times,serif" font-size="14" text-anchor="start">checksum</text><polygon fill="none" stroke="#000" points="71.75 -4 71.75 -26.5 92 -26.5 92 -4 71.75 -4"/><polygon fill="none" stroke="#000" points="92 -4 92 -26.5 182 -26.5 182 -4 92 -4"/><text x="95" y="-10.2" font-family="Times,serif" font-size="14" text-anchor="start">execution_time</text></g><g id="node2" class="node"><title>email_setting</title><polygon fill="none" stroke="#000" points="70.62 -371.75 70.62 -394.25 183.12 -394.25 183.12 -371.75 70.62 -371.75"/><text x="88.25" y="-378.95" font-family="Times,serif" font-size="14" font-weight="bold" text-anchor="start">email_setting</text><polygon fill="none" stroke="#000" points="70.62 -347 70.62 -371.75 90.88 -371.75 90.88 -347 70.62 -347"/><text x="73.62" y="-355.45" font-family="Times,serif" font-size="14" text-anchor="start">🔑</text><polygon fill="none" stroke="#000" points="90.88 -347 90.88 -371.75 183.12 -371.75 183.12 -347 90.88 -347"/><text x="131.75" y="-354.32" font-family="Times,serif" font-size="14" text-anchor="start">id</text><polygon fill="none" stroke="#000" points="70.62 -324.5 70.62 -347 90.88 -347 90.88 -324.5 70.62 -324.5"/><polygon fill="none" stroke="#000" points="90.88 -324.5 90.88 -347 183.12 -347 183.12 -324.5 90.88 -324.5"/><text x="93.88" y="-330.7" font-family="Times,serif" font-size="14" text-anchor="start">smtp_username</text><polygon fill="none" stroke="#000" points="70.62 -302 70.62 -324.5 90.88 -324.5 90.88 -302 70.62 -302"/><polygon fill="none" stroke="#000" points="90.88 -302 90.88 -324.5 183.12 -324.5 183.12 -302 90.88 -302"/><text x="94.62" y="-308.2" font-family="Times,serif" font-size="14" text-anchor="start">smtp_password</text><polygon fill="none" stroke="#000" points="70.62 -279.5 70.62 -302 90.88 -302 90.88 -279.5 70.62 -279.5"/><polygon fill="none" stroke="#000" points="90.88 -279.5 90.88 -302 183.12 -302 183.12 -279.5 90.88 -279.5"/><text x="103.62" y="-285.7" font-family="Times,serif" font-size="14" text-anchor="start">smtp_server</text><polygon fill="none" stroke="#000" points="70.62 -257 70.62 -279.5 90.88 -279.5 90.88 -257 70.62 -257"/><polygon fill="none" stroke="#000" points="90.88 -257 90.88 -279.5 183.12 -279.5 183.12 -257 90.88 -257"/><text x="99.88" y="-263.2" font-family="Times,serif" font-size="14" text-anchor="start">from_address</text><polygon fill="none" stroke="#000" points="70.62 -234.5 70.62 -257 90.88 -257 90.88 -234.5 70.62 -234.5"/><polygon fill="none" stroke="#000" points="90.88 -234.5 90.88 -257 183.12 -257 183.12 -234.5 90.88 -234.5"/><text x="108.12" y="-240.7" font-family="Times,serif" font-size="14" text-anchor="start">encryption</text><polygon fill="none" stroke="#000" points="70.62 -212 70.62 -234.5 90.88 -234.5 90.88 -212 70.62 -212"/><polygon fill="none" stroke="#000" points="90.88 -212 90.88 -234.5 183.12 -234.5 183.12 -212 90.88 -212"/><text x="101.38" y="-218.2" font-family="Times,serif" font-size="14" text-anchor="start">auth_method</text><polygon fill="none" stroke="#000" points="70.62 -189.5 70.62 -212 90.88 -212 90.88 -189.5 70.62 -189.5"/><polygon fill="none" stroke="#000" points="90.88 -189.5 90.88 -212 183.12 -212 183.12 -189.5 90.88 -189.5"/><text x="109.25" y="-195.7" font-family="Times,serif" font-size="14" text-anchor="start">smtp_port</text></g><g id="node3" class="node"><title>integrations</title><polygon fill="none" stroke="#000" points="339.75 -580 339.75 -602.5 441.75 -602.5 441.75 -580 339.75 -580"/><text x="356.25" y="-587.2" font-family="Times,serif" font-size="14" font-weight="bold" text-anchor="start">integrations</text><polygon fill="none" stroke="#000" points="339.75 -555.25 339.75 -580 360 -580 360 -555.25 339.75 -555.25"/><text x="342.75" y="-563.7" font-family="Times,serif" font-size="14" text-anchor="start">🔑</text><polygon fill="none" stroke="#000" points="360 -555.25 360 -580 441.75 -580 441.75 -555.25 360 -555.25"/><text x="395.62" y="-562.58" font-family="Times,serif" font-size="14" text-anchor="start">id</text><polygon fill="none" stroke="#000" points="339.75 -532.75 339.75 -555.25 360 -555.25 360 -532.75 339.75 -532.75"/><polygon fill="none" stroke="#000" points="360 -532.75 360 -555.25 441.75 -555.25 441.75 -532.75 360 -532.75"/><text x="388.88" y="-538.95" font-family="Times,serif" font-size="14" text-anchor="start">kind</text><polygon fill="none" stroke="#000" points="339.75 -510.25 339.75 -532.75 360 -532.75 360 -510.25 339.75 -510.25"/><polygon fill="none" stroke="#000" points="360 -510.25 360 -532.75 441.75 -532.75 441.75 -510.25 360 -510.25"/><text x="363" y="-516.45" font-family="Times,serif" font-size="14" text-anchor="start">display_name</text><polygon fill="none" stroke="#000" points="339.75 -487.75 339.75 -510.25 360 -510.25 360 -487.75 339.75 -487.75"/><polygon fill="none" stroke="#000" points="360 -487.75 360 -510.25 441.75 -510.25 441.75 -487.75 360 -487.75"/><text x="365.25" y="-493.95" font-family="Times,serif" font-size="14" text-anchor="start">access_token</text><polygon fill="none" stroke="#000" points="339.75 -465.25 339.75 -487.75 360 -487.75 360 -465.25 339.75 -465.25"/><polygon fill="none" stroke="#000" points="360 -465.25 360 -487.75 441.75 -487.75 441.75 -465.25 360 -465.25"/><text x="377.25" y="-471.45" font-family="Times,serif" font-size="14" text-anchor="start">api_base</text><polygon fill="none" stroke="#000" points="339.75 -442.75 339.75 -465.25 360 -465.25 360 -442.75 339.75 -442.75"/><polygon fill="none" stroke="#000" points="360 -442.75 360 -465.25 441.75 -465.25 441.75 -442.75 360 -442.75"/><text x="387.75" y="-448.95" font-family="Times,serif" font-size="14" text-anchor="start">error</text><polygon fill="none" stroke="#000" points="339.75 -420.25 339.75 -442.75 360 -442.75 360 -420.25 339.75 -420.25"/><polygon fill="none" stroke="#000" points="360 -420.25 360 -442.75 441.75 -442.75 441.75 -420.25 360 -420.25"/><text x="373.12" y="-426.45" font-family="Times,serif" font-size="14" text-anchor="start">created_at</text><polygon fill="none" stroke="#000" points="339.75 -397.75 339.75 -420.25 360 -420.25 360 -397.75 339.75 -397.75"/><polygon fill="none" stroke="#000" points="360 -397.75 360 -420.25 441.75 -420.25 441.75 -397.75 360 -397.75"/><text x="371.25" y="-403.95" font-family="Times,serif" font-size="14" text-anchor="start">updated_at</text><polygon fill="none" stroke="#000" points="339.75 -375.25 339.75 -397.75 360 -397.75 360 -375.25 339.75 -375.25"/><polygon fill="none" stroke="#000" points="360 -375.25 360 -397.75 441.75 -397.75 441.75 -375.25 360 -375.25"/><text x="382.12" y="-381.45" font-family="Times,serif" font-size="14" text-anchor="start">synced</text></g><g id="node4" class="node"><title>invitations</title><polygon fill="none" stroke="#000" points="86 -748.75 86 -771.25 167.75 -771.25 167.75 -748.75 86 -748.75"/><text x="96.5" y="-755.95" font-family="Times,serif" font-size="14" font-weight="bold" text-anchor="start">invitations</text><polygon fill="none" stroke="#000" points="86 -724 86 -748.75 106.25 -748.75 106.25 -724 86 -724"/><text x="89" y="-732.45" font-family="Times,serif" font-size="14" text-anchor="start">🔑</text><polygon fill="none" stroke="#000" points="106.25 -724 106.25 -748.75 167.75 -748.75 167.75 -724 106.25 -724"/><text x="131.75" y="-731.33" font-family="Times,serif" font-size="14" text-anchor="start">id</text><polygon fill="none" stroke="#000" points="86 -701.5 86 -724 106.25 -724 106.25 -701.5 86 -701.5"/><polygon fill="none" stroke="#000" points="106.25 -701.5 106.25 -724 167.75 -724 167.75 -701.5 106.25 -701.5"/><text x="121.62" y="-707.7" font-family="Times,serif" font-size="14" text-anchor="start">email</text><polygon fill="none" stroke="#000" points="86 -679 86 -701.5 106.25 -701.5 106.25 -679 86 -679"/><polygon fill="none" stroke="#000" points="106.25 -679 106.25 -701.5 167.75 -701.5 167.75 -679 106.25 -679"/><text x="124.25" y="-685.2" font-family="Times,serif" font-size="14" text-anchor="start">code</text><polygon fill="none" stroke="#000" points="86 -656.5 86 -679 106.25 -679 106.25 -656.5 86 -656.5"/><polygon fill="none" stroke="#000" points="106.25 -656.5 106.25 -679 167.75 -679 167.75 -656.5 106.25 -656.5"/><text x="109.25" y="-662.7" font-family="Times,serif" font-size="14" text-anchor="start">created_at</text></g><g id="node5" class="node"><title>job_runs</title><polygon fill="none" stroke="#000" points="84.12 -1064.5 84.12 -1087 169.62 -1087 169.62 -1064.5 84.12 -1064.5"/><text x="101" y="-1071.7" font-family="Times,serif" font-size="14" font-weight="bold" text-anchor="start">job_runs</text><polygon fill="none" stroke="#000" points="84.12 -1039.75 84.12 -1064.5 104.38 -1064.5 104.38 -1039.75 84.12 -1039.75"/><text x="87.12" y="-1048.2" font-family="Times,serif" font-size="14" text-anchor="start">🔑</text><polygon fill="none" stroke="#000" points="104.38 -1039.75 104.38 -1064.5 169.62 -1064.5 169.62 -1039.75 104.38 -1039.75"/><text x="131.75" y="-1047.08" font-family="Times,serif" font-size="14" text-anchor="start">id</text><polygon fill="none" stroke="#000" points="84.12 -1017.25 84.12 -1039.75 104.38 -1039.75 104.38 -1017.25 84.12 -1017.25"/><polygon fill="none" stroke="#000" points="104.38 -1017.25 104.38 -1039.75 169.62 -1039.75 169.62 -1017.25 104.38 -1017.25"/><text x="128.38" y="-1023.45" font-family="Times,serif" font-size="14" text-anchor="start">job</text><polygon fill="none" stroke="#000" points="84.12 -994.75 84.12 -1017.25 104.38 -1017.25 104.38 -994.75 84.12 -994.75"/><polygon fill="none" stroke="#000" points="104.38 -994.75 104.38 -1017.25 169.62 -1017.25 169.62 -994.75 104.38 -994.75"/><text x="117.5" y="-1000.95" font-family="Times,serif" font-size="14" text-anchor="start">start_ts</text><polygon fill="none" stroke="#000" points="84.12 -972.25 84.12 -994.75 104.38 -994.75 104.38 -972.25 84.12 -972.25"/><polygon fill="none" stroke="#000" points="104.38 -972.25 104.38 -994.75 169.62 -994.75 169.62 -972.25 104.38 -972.25"/><text x="119.38" y="-978.45" font-family="Times,serif" font-size="14" text-anchor="start">end_ts</text><polygon fill="none" stroke="#000" points="84.12 -949.75 84.12 -972.25 104.38 -972.25 104.38 -949.75 84.12 -949.75"/><polygon fill="none" stroke="#000" points="104.38 -949.75 104.38 -972.25 169.62 -972.25 169.62 -949.75 104.38 -949.75"/><text x="110.75" y="-955.95" font-family="Times,serif" font-size="14" text-anchor="start">exit_code</text><polygon fill="none" stroke="#000" points="84.12 -927.25 84.12 -949.75 104.38 -949.75 104.38 -927.25 84.12 -927.25"/><polygon fill="none" stroke="#000" points="104.38 -927.25 104.38 -949.75 169.62 -949.75 169.62 -927.25 104.38 -927.25"/><text x="120.5" y="-933.45" font-family="Times,serif" font-size="14" text-anchor="start">stdout</text><polygon fill="none" stroke="#000" points="84.12 -904.75 84.12 -927.25 104.38 -927.25 104.38 -904.75 84.12 -904.75"/><polygon fill="none" stroke="#000" points="104.38 -904.75 104.38 -927.25 169.62 -927.25 169.62 -904.75 104.38 -904.75"/><text x="121.62" y="-910.95" font-family="Times,serif" font-size="14" text-anchor="start">stderr</text><polygon fill="none" stroke="#000" points="84.12 -882.25 84.12 -904.75 104.38 -904.75 104.38 -882.25 84.12 -882.25"/><polygon fill="none" stroke="#000" points="104.38 -882.25 104.38 -904.75 169.62 -904.75 169.62 -882.25 104.38 -882.25"/><text x="109.25" y="-888.45" font-family="Times,serif" font-size="14" text-anchor="start">created_at</text><polygon fill="none" stroke="#000" points="84.12 -859.75 84.12 -882.25 104.38 -882.25 104.38 -859.75 84.12 -859.75"/><polygon fill="none" stroke="#000" points="104.38 -859.75 104.38 -882.25 169.62 -882.25 169.62 -859.75 104.38 -859.75"/><text x="107.38" y="-865.95" font-family="Times,serif" font-size="14" text-anchor="start">updated_at</text><polygon fill="none" stroke="#000" points="84.12 -837.25 84.12 -859.75 104.38 -859.75 104.38 -837.25 84.12 -837.25"/><polygon fill="none" stroke="#000" points="104.38 -837.25 104.38 -859.75 169.62 -859.75 169.62 -837.25 104.38 -837.25"/><text x="109.62" y="-843.45" font-family="Times,serif" font-size="14" text-anchor="start">command</text><polygon fill="none" stroke="#000" points="84.12 -814.75 84.12 -837.25 104.38 -837.25 104.38 -814.75 84.12 -814.75"/><polygon fill="none" stroke="#000" points="104.38 -814.75 104.38 -837.25 169.62 -837.25 169.62 -814.75 104.38 -814.75"/><text x="110.75" y="-820.95" font-family="Times,serif" font-size="14" text-anchor="start">started_at</text></g><g id="node6" class="node"><title>ldap_credential</title><polygon fill="none" stroke="#000" points="72.5 -1416 72.5 -1438.5 181.25 -1438.5 181.25 -1416 72.5 -1416"/><text x="81.88" y="-1423.2" font-family="Times,serif" font-size="14" font-weight="bold" text-anchor="start">ldap_credential</text><polygon fill="none" stroke="#000" points="72.5 -1391.25 72.5 -1416 92.75 -1416 92.75 -1391.25 72.5 -1391.25"/><text x="75.5" y="-1399.7" font-family="Times,serif" font-size="14" text-anchor="start">🔑</text><polygon fill="none" stroke="#000" points="92.75 -1391.25 92.75 -1416 181.25 -1416 181.25 -1391.25 92.75 -1391.25"/><text x="131.75" y="-1398.58" font-family="Times,serif" font-size="14" text-anchor="start">id</text><polygon fill="none" stroke="#000" points="72.5 -1368.75 72.5 -1391.25 92.75 -1391.25 92.75 -1368.75 72.5 -1368.75"/><polygon fill="none" stroke="#000" points="92.75 -1368.75 92.75 -1391.25 181.25 -1391.25 181.25 -1368.75 92.75 -1368.75"/><text x="125.75" y="-1374.95" font-family="Times,serif" font-size="14" text-anchor="start">host</text><polygon fill="none" stroke="#000" points="72.5 -1346.25 72.5 -1368.75 92.75 -1368.75 92.75 -1346.25 72.5 -1346.25"/><polygon fill="none" stroke="#000" points="92.75 -1346.25 92.75 -1368.75 181.25 -1368.75 181.25 -1346.25 92.75 -1346.25"/><text x="126.12" y="-1352.45" font-family="Times,serif" font-size="14" text-anchor="start">port</text><polygon fill="none" stroke="#000" points="72.5 -1323.75 72.5 -1346.25 92.75 -1346.25 92.75 -1323.75 72.5 -1323.75"/><polygon fill="none" stroke="#000" points="92.75 -1323.75 92.75 -1346.25 181.25 -1346.25 181.25 -1323.75 92.75 -1323.75"/><text x="114.88" y="-1329.95" font-family="Times,serif" font-size="14" text-anchor="start">bind_dn</text><polygon fill="none" stroke="#000" points="72.5 -1301.25 72.5 -1323.75 92.75 -1323.75 92.75 -1301.25 72.5 -1301.25"/><polygon fill="none" stroke="#000" points="92.75 -1301.25 92.75 -1323.75 181.25 -1323.75 181.25 -1301.25 92.75 -1301.25"/><text x="96.12" y="-1307.45" font-family="Times,serif" font-size="14" text-anchor="start">bind_password</text><polygon fill="none" stroke="#000" points="72.5 -1278.75 72.5 -1301.25 92.75 -1301.25 92.75 -1278.75 72.5 -1278.75"/><polygon fill="none" stroke="#000" points="92.75 -1278.75 92.75 -1301.25 181.25 -1301.25 181.25 -1278.75 92.75 -1278.75"/><text x="114.88" y="-1284.95" font-family="Times,serif" font-size="14" text-anchor="start">base_dn</text><polygon fill="none" stroke="#000" points="72.5 -1256.25 72.5 -1278.75 92.75 -1278.75 92.75 -1256.25 72.5 -1256.25"/><polygon fill="none" stroke="#000" points="92.75 -1256.25 92.75 -1278.75 181.25 -1278.75 181.25 -1256.25 92.75 -1256.25"/><text x="109.25" y="-1262.45" font-family="Times,serif" font-size="14" text-anchor="start">user_filter</text><polygon fill="none" stroke="#000" points="72.5 -1233.75 72.5 -1256.25 92.75 -1256.25 92.75 -1233.75 72.5 -1233.75"/><polygon fill="none" stroke="#000" points="92.75 -1233.75 92.75 -1256.25 181.25 -1256.25 181.25 -1233.75 92.75 -1233.75"/><text x="108.12" y="-1239.95" font-family="Times,serif" font-size="14" text-anchor="start">encryption</text><polygon fill="none" stroke="#000" points="72.5 -1211.25 72.5 -1233.75 92.75 -1233.75 92.75 -1211.25 72.5 -1211.25"/><polygon fill="none" stroke="#000" points="92.75 -1211.25 92.75 -1233.75 181.25 -1233.75 181.25 -1211.25 92.75 -1211.25"/><text x="96.5" y="-1217.45" font-family="Times,serif" font-size="14" text-anchor="start">skip_tls_verify</text><polygon fill="none" stroke="#000" points="72.5 -1188.75 72.5 -1211.25 92.75 -1211.25 92.75 -1188.75 72.5 -1188.75"/><polygon fill="none" stroke="#000" points="92.75 -1188.75 92.75 -1211.25 181.25 -1211.25 181.25 -1188.75 92.75 -1188.75"/><text x="95.75" y="-1194.95" font-family="Times,serif" font-size="14" text-anchor="start">email_attribute</text><polygon fill="none" stroke="#000" points="72.5 -1166.25 72.5 -1188.75 92.75 -1188.75 92.75 -1166.25 72.5 -1166.25"/><polygon fill="none" stroke="#000" points="92.75 -1166.25 92.75 -1188.75 181.25 -1188.75 181.25 -1166.25 92.75 -1166.25"/><text x="96.12" y="-1172.45" font-family="Times,serif" font-size="14" text-anchor="start">name_attribute</text><polygon fill="none" stroke="#000" points="72.5 -1143.75 72.5 -1166.25 92.75 -1166.25 92.75 -1143.75 72.5 -1143.75"/><polygon fill="none" stroke="#000" points="92.75 -1143.75 92.75 -1166.25 181.25 -1166.25 181.25 -1143.75 92.75 -1143.75"/><text x="109.25" y="-1149.95" font-family="Times,serif" font-size="14" text-anchor="start">created_at</text><polygon fill="none" stroke="#000" points="72.5 -1121.25 72.5 -1143.75 92.75 -1143.75 92.75 -1121.25 72.5 -1121.25"/><polygon fill="none" stroke="#000" points="92.75 -1121.25 92.75 -1143.75 181.25 -1143.75 181.25 -1121.25 92.75 -1121.25"/><text x="107.38" y="-1127.45" font-family="Times,serif" font-size="14" text-anchor="start">updated_at</text></g><g id="node7" class="node"><title>notifications</title><polygon fill="none" stroke="#000" points="561.62 -1953 561.62 -1975.5 647.12 -1975.5 647.12 -1953 561.62 -1953"/><text x="568.75" y="-1960.2" font-family="Times,serif" font-size="14" font-weight="bold" text-anchor="start">notifications</text><polygon fill="none" stroke="#000" points="561.62 -1928.25 561.62 -1953 581.88 -1953 581.88 -1928.25 561.62 -1928.25"/><text x="564.62" y="-1936.7" font-family="Times,serif" font-size="14" text-anchor="start">🔑</text><polygon fill="none" stroke="#000" points="581.88 -1928.25 581.88 -1953 647.12 -1953 647.12 -1928.25 581.88 -1928.25"/><text x="609.25" y="-1935.58" font-family="Times,serif" font-size="14" text-anchor="start">id</text><polygon fill="none" stroke="#000" points="561.62 -1905.75 561.62 -1928.25 581.88 -1928.25 581.88 -1905.75 561.62 -1905.75"/><polygon fill="none" stroke="#000" points="581.88 -1905.75 581.88 -1928.25 647.12 -1928.25 647.12 -1905.75 581.88 -1905.75"/><text x="586.75" y="-1911.95" font-family="Times,serif" font-size="14" text-anchor="start">created_at</text><polygon fill="none" stroke="#000" points="561.62 -1883.25 561.62 -1905.75 581.88 -1905.75 581.88 -1883.25 561.62 -1883.25"/><polygon fill="none" stroke="#000" points="581.88 -1883.25 581.88 -1905.75 647.12 -1905.75 647.12 -1883.25 581.88 -1883.25"/><text x="584.88" y="-1889.45" font-family="Times,serif" font-size="14" text-anchor="start">updated_at</text><polygon fill="none" stroke="#000" points="561.62 -1860.75 561.62 -1883.25 581.88 -1883.25 581.88 -1860.75 561.62 -1860.75"/><polygon fill="none" stroke="#000" points="581.88 -1860.75 581.88 -1883.25 647.12 -1883.25 647.12 -1860.75 581.88 -1860.75"/><text x="590.88" y="-1866.95" font-family="Times,serif" font-size="14" text-anchor="start">recipient</text><polygon fill="none" stroke="#000" points="561.62 -1838.25 561.62 -1860.75 581.88 -1860.75 581.88 -1838.25 561.62 -1838.25"/><polygon fill="none" stroke="#000" points="581.88 -1838.25 581.88 -1860.75 647.12 -1860.75 647.12 -1838.25 581.88 -1838.25"/><text x="594.62" y="-1844.45" font-family="Times,serif" font-size="14" text-anchor="start">content</text></g><g id="node8" class="node"><title>oauth_credential</title><polygon fill="none" stroke="#000" points="75.12 -1882.25 75.12 -1904.75 178.62 -1904.75 178.62 -1882.25 75.12 -1882.25"/><text x="78.12" y="-1889.45" font-family="Times,serif" font-size="14" font-weight="bold" text-anchor="start">oauth_credential</text><polygon fill="none" stroke="#000" points="75.12 -1857.5 75.12 -1882.25 99.88 -1882.25 99.88 -1857.5 75.12 -1857.5"/><text x="80.38" y="-1865.95" font-family="Times,serif" font-size="14" text-anchor="start">🔑</text><polygon fill="none" stroke="#000" points="99.88 -1857.5 99.88 -1882.25 178.62 -1882.25 178.62 -1857.5 99.88 -1857.5"/><text x="134" y="-1864.83" font-family="Times,serif" font-size="14" text-anchor="start">id</text><polygon fill="none" stroke="#000" points="75.12 -1835 75.12 -1857.5 99.88 -1857.5 99.88 -1835 75.12 -1835"/><polygon fill="none" stroke="#000" points="99.88 -1835 99.88 -1857.5 178.62 -1857.5 178.62 -1835 99.88 -1835"/><text x="116.38" y="-1841.2" font-family="Times,serif" font-size="14" text-anchor="start">provider</text><polygon fill="none" stroke="#000" points="75.12 -1812.5 75.12 -1835 99.88 -1835 99.88 -1812.5 75.12 -1812.5"/><polygon fill="none" stroke="#000" points="99.88 -1812.5 99.88 -1835 178.62 -1835 178.62 -1812.5 99.88 -1812.5"/><text x="115.62" y="-1818.7" font-family="Times,serif" font-size="14" text-anchor="start">client_id</text><polygon fill="none" stroke="#000" points="75.12 -1790 75.12 -1812.5 99.88 -1812.5 99.88 -1790 75.12 -1790"/><polygon fill="none" stroke="#000" points="99.88 -1790 99.88 -1812.5 178.62 -1812.5 178.62 -1790 99.88 -1790"/><text x="105.12" y="-1796.2" font-family="Times,serif" font-size="14" text-anchor="start">client_secret</text><polygon fill="none" stroke="#000" points="75.12 -1767.5 75.12 -1790 99.88 -1790 99.88 -1767.5 75.12 -1767.5"/><polygon fill="none" stroke="#000" points="99.88 -1767.5 99.88 -1790 178.62 -1790 178.62 -1767.5 99.88 -1767.5"/><text x="111.5" y="-1773.7" font-family="Times,serif" font-size="14" text-anchor="start">created_at</text><polygon fill="none" stroke="#000" points="75.12 -1745 75.12 -1767.5 99.88 -1767.5 99.88 -1745 75.12 -1745"/><polygon fill="none" stroke="#000" points="99.88 -1745 99.88 -1767.5 178.62 -1767.5 178.62 -1745 99.88 -1745"/><text x="109.62" y="-1751.2" font-family="Times,serif" font-size="14" text-anchor="start">updated_at</text></g><g id="node9" class="node"><title>password_reset</title><polygon fill="none" stroke="#000" points="343.12 -1069.75 343.12 -1092.25 438.38 -1092.25 438.38 -1069.75 343.12 -1069.75"/><text x="346.12" y="-1076.95" font-family="Times,serif" font-size="14" font-weight="bold" text-anchor="start">password_reset</text><polygon fill="none" stroke="#000" points="343.12 -1045 343.12 -1069.75 370.12 -1069.75 370.12 -1045 343.12 -1045"/><text x="349.5" y="-1053.45" font-family="Times,serif" font-size="14" text-anchor="start">🔑</text><polygon fill="none" stroke="#000" points="370.12 -1045 370.12 -1069.75 438.38 -1069.75 438.38 -1045 370.12 -1045"/><text x="399" y="-1052.33" font-family="Times,serif" font-size="14" text-anchor="start">id</text><polygon fill="none" stroke="#000" points="343.12 -1022.5 343.12 -1045 370.12 -1045 370.12 -1022.5 343.12 -1022.5"/><polygon fill="none" stroke="#000" points="370.12 -1022.5 370.12 -1045 438.38 -1045 438.38 -1022.5 370.12 -1022.5"/><text x="384.38" y="-1028.7" font-family="Times,serif" font-size="14" text-anchor="start">user_id</text><polygon fill="none" stroke="#000" points="343.12 -1000 343.12 -1022.5 370.12 -1022.5 370.12 -1000 343.12 -1000"/><polygon fill="none" stroke="#000" points="370.12 -1000 370.12 -1022.5 438.38 -1022.5 438.38 -1000 370.12 -1000"/><text x="391.5" y="-1006.2" font-family="Times,serif" font-size="14" text-anchor="start">code</text><polygon fill="none" stroke="#000" points="343.12 -977.5 343.12 -1000 370.12 -1000 370.12 -977.5 343.12 -977.5"/><polygon fill="none" stroke="#000" points="370.12 -977.5 370.12 -1000 438.38 -1000 438.38 -977.5 370.12 -977.5"/><text x="376.5" y="-983.7" font-family="Times,serif" font-size="14" text-anchor="start">created_at</text></g><g id="node23" class="node"><title>users</title><polygon fill="none" stroke="#000" points="535.75 -1463.25 535.75 -1485.75 673 -1485.75 673 -1463.25 535.75 -1463.25"/><text x="589.38" y="-1470.45" font-family="Times,serif" font-size="14" font-weight="bold" text-anchor="start">users</text><polygon fill="none" stroke="#000" points="535.75 -1438.5 535.75 -1463.25 556 -1463.25 556 -1438.5 535.75 -1438.5"/><text x="538.75" y="-1446.95" font-family="Times,serif" font-size="14" text-anchor="start">🔑</text><polygon fill="none" stroke="#000" points="556 -1438.5 556 -1463.25 673 -1463.25 673 -1438.5 556 -1438.5"/><text x="609.25" y="-1445.83" font-family="Times,serif" font-size="14" text-anchor="start">id</text><polygon fill="none" stroke="#000" points="535.75 -1416 535.75 -1438.5 556 -1438.5 556 -1416 535.75 -1416"/><polygon fill="none" stroke="#000" points="556 -1416 556 -1438.5 673 -1438.5 673 -1416 556 -1416"/><text x="599.12" y="-1422.2" font-family="Times,serif" font-size="14" text-anchor="start">email</text><polygon fill="none" stroke="#000" points="535.75 -1393.5 535.75 -1416 556 -1416 556 -1393.5 535.75 -1393.5"/><polygon fill="none" stroke="#000" points="556 -1393.5 556 -1416 673 -1416 673 -1393.5 556 -1393.5"/><text x="589.38" y="-1399.7" font-family="Times,serif" font-size="14" text-anchor="start">is_admin</text><polygon fill="none" stroke="#000" points="535.75 -1371 535.75 -1393.5 556 -1393.5 556 -1371 535.75 -1371"/><polygon fill="none" stroke="#000" points="556 -1371 556 -1393.5 673 -1393.5 673 -1371 556 -1371"/><text x="586.75" y="-1377.2" font-family="Times,serif" font-size="14" text-anchor="start">created_at</text><polygon fill="none" stroke="#000" points="535.75 -1348.5 535.75 -1371 556 -1371 556 -1348.5 535.75 -1348.5"/><polygon fill="none" stroke="#000" points="556 -1348.5 556 -1371 673 -1371 673 -1348.5 556 -1348.5"/><text x="584.88" y="-1354.7" font-family="Times,serif" font-size="14" text-anchor="start">updated_at</text><polygon fill="none" stroke="#000" points="535.75 -1326 535.75 -1348.5 556 -1348.5 556 -1326 535.75 -1326"/><polygon fill="none" stroke="#000" points="556 -1326 556 -1348.5 673 -1348.5 673 -1326 556 -1326"/><text x="584.5" y="-1332.2" font-family="Times,serif" font-size="14" text-anchor="start">auth_token</text><polygon fill="none" stroke="#000" points="535.75 -1303.5 535.75 -1326 556 -1326 556 -1303.5 535.75 -1303.5"/><polygon fill="none" stroke="#000" points="556 -1303.5 556 -1326 673 -1326 673 -1303.5 556 -1303.5"/><text x="598.38" y="-1309.7" font-family="Times,serif" font-size="14" text-anchor="start">active</text><polygon fill="none" stroke="#000" points="535.75 -1281 535.75 -1303.5 556 -1303.5 556 -1281 535.75 -1281"/><polygon fill="none" stroke="#000" points="556 -1281 556 -1303.5 673 -1303.5 673 -1281 556 -1281"/><text x="559" y="-1287.2" font-family="Times,serif" font-size="14" text-anchor="start">password_encrypted</text><polygon fill="none" stroke="#000" points="535.75 -1258.5 535.75 -1281 556 -1281 556 -1258.5 535.75 -1258.5"/><polygon fill="none" stroke="#000" points="556 -1258.5 556 -1281 673 -1281 673 -1258.5 556 -1258.5"/><text x="598" y="-1264.7" font-family="Times,serif" font-size="14" text-anchor="start">avatar</text><polygon fill="none" stroke="#000" points="535.75 -1236 535.75 -1258.5 556 -1258.5 556 -1236 535.75 -1236"/><polygon fill="none" stroke="#000" points="556 -1236 556 -1258.5 673 -1258.5 673 -1236 556 -1236"/><text x="599.5" y="-1242.2" font-family="Times,serif" font-size="14" text-anchor="start">name</text></g><g id="edge10" class="edge"><title>password_reset:e-&gt;users:w</title><path fill="none" stroke="#000" d="M439.38,-1033.75C478.63,-1033.75 477.22,-1068.41 491.75,-1104.88 518.92,-1173.06 463.68,-1422.54 523.63,-1448.66"/><polygon fill="#000" stroke="#000" points="522.77 -1452.06 533.27 -1450.58 524.14 -1445.19 522.77 -1452.06"/></g><g id="node10" class="node"><title>provided_repositories</title><polygon fill="none" stroke="#000" points="60.88 -602.75 60.88 -625.25 192.88 -625.25 192.88 -602.75 60.88 -602.75"/><text x="63.88" y="-609.95" font-family="Times,serif" font-size="14" font-weight="bold" text-anchor="start">provided_repositories</text><polygon fill="none" stroke="#000" points="60.88 -578 60.88 -602.75 96.12 -602.75 96.12 -578 60.88 -578"/><text x="71.38" y="-586.45" font-family="Times,serif" font-size="14" text-anchor="start">🔑</text><polygon fill="none" stroke="#000" points="96.12 -578 96.12 -602.75 192.88 -602.75 192.88 -578 96.12 -578"/><text x="139.25" y="-585.33" font-family="Times,serif" font-size="14" text-anchor="start">id</text><polygon fill="none" stroke="#000" points="60.88 -555.5 60.88 -578 96.12 -578 96.12 -555.5 60.88 -555.5"/><polygon fill="none" stroke="#000" points="96.12 -555.5 96.12 -578 192.88 -578 192.88 -555.5 96.12 -555.5"/><text x="106.62" y="-561.7" font-family="Times,serif" font-size="14" text-anchor="start">integration_id</text><polygon fill="none" stroke="#000" points="60.88 -533 60.88 -555.5 96.12 -555.5 96.12 -533 60.88 -533"/><polygon fill="none" stroke="#000" points="96.12 -533 96.12 -555.5 192.88 -555.5 192.88 -533 96.12 -533"/><text x="117.12" y="-539.2" font-family="Times,serif" font-size="14" text-anchor="start">vendor_id</text><polygon fill="none" stroke="#000" points="60.88 -510.5 60.88 -533 96.12 -533 96.12 -510.5 60.88 -510.5"/><polygon fill="none" stroke="#000" points="96.12 -510.5 96.12 -533 192.88 -533 192.88 -510.5 96.12 -510.5"/><text x="129.5" y="-516.7" font-family="Times,serif" font-size="14" text-anchor="start">name</text><polygon fill="none" stroke="#000" points="60.88 -488 60.88 -510.5 96.12 -510.5 96.12 -488 60.88 -488"/><polygon fill="none" stroke="#000" points="96.12 -488 96.12 -510.5 192.88 -510.5 192.88 -488 96.12 -488"/><text x="126.5" y="-494.2" font-family="Times,serif" font-size="14" text-anchor="start">git_url</text><polygon fill="none" stroke="#000" points="60.88 -465.5 60.88 -488 96.12 -488 96.12 -465.5 60.88 -465.5"/><polygon fill="none" stroke="#000" points="96.12 -465.5 96.12 -488 192.88 -488 192.88 -465.5 96.12 -465.5"/><text x="128.38" y="-471.7" font-family="Times,serif" font-size="14" text-anchor="start">active</text><polygon fill="none" stroke="#000" points="60.88 -443 60.88 -465.5 96.12 -465.5 96.12 -443 60.88 -443"/><polygon fill="none" stroke="#000" points="96.12 -443 96.12 -465.5 192.88 -465.5 192.88 -443 96.12 -443"/><text x="116.75" y="-449.2" font-family="Times,serif" font-size="14" text-anchor="start">created_at</text><polygon fill="none" stroke="#000" points="60.88 -420.5 60.88 -443 96.12 -443 96.12 -420.5 60.88 -420.5"/><polygon fill="none" stroke="#000" points="96.12 -420.5 96.12 -443 192.88 -443 192.88 -420.5 96.12 -420.5"/><text x="114.88" y="-426.7" font-family="Times,serif" font-size="14" text-anchor="start">updated_at</text></g><g id="edge12" class="edge"><title>provided_repositories:e-&gt;integrations:w</title><path fill="none" stroke="#000" d="M193.88,-566.75C254.37,-566.75 272.23,-567.52 327.56,-567.62"/><polygon fill="#000" stroke="#000" points="327.23 -571.12 337.24 -567.62 327.24 -564.12 327.23 -571.12"/></g><g id="node11" class="node"><title>read_notifications</title><polygon fill="none" stroke="#000" points="335.62 -1999 335.62 -2021.5 445.88 -2021.5 445.88 -1999 335.62 -1999"/><text x="338.62" y="-2006.2" font-family="Times,serif" font-size="14" font-weight="bold" text-anchor="start">read_notifications</text><polygon fill="none" stroke="#000" points="335.62 -1974.25 335.62 -1999 358.12 -1999 358.12 -1974.25 335.62 -1974.25"/><text x="339.75" y="-1982.7" font-family="Times,serif" font-size="14" text-anchor="start">🔑</text><polygon fill="none" stroke="#000" points="358.12 -1974.25 358.12 -1999 445.88 -1999 445.88 -1974.25 358.12 -1974.25"/><text x="396.75" y="-1981.58" font-family="Times,serif" font-size="14" text-anchor="start">id</text><polygon fill="none" stroke="#000" points="335.62 -1951.75 335.62 -1974.25 358.12 -1974.25 358.12 -1951.75 335.62 -1951.75"/><polygon fill="none" stroke="#000" points="358.12 -1951.75 358.12 -1974.25 445.88 -1974.25 445.88 -1951.75 358.12 -1951.75"/><text x="382.12" y="-1957.95" font-family="Times,serif" font-size="14" text-anchor="start">user_id</text><polygon fill="none" stroke="#000" points="335.62 -1929.25 335.62 -1951.75 358.12 -1951.75 358.12 -1929.25 335.62 -1929.25"/><polygon fill="none" stroke="#000" points="358.12 -1929.25 358.12 -1951.75 445.88 -1951.75 445.88 -1929.25 358.12 -1929.25"/><text x="362.25" y="-1935.45" font-family="Times,serif" font-size="14" text-anchor="start">notification_id</text><polygon fill="none" stroke="#000" points="335.62 -1906.75 335.62 -1929.25 358.12 -1929.25 358.12 -1906.75 335.62 -1906.75"/><polygon fill="none" stroke="#000" points="358.12 -1906.75 358.12 -1929.25 445.88 -1929.25 445.88 -1906.75 358.12 -1906.75"/><text x="374.25" y="-1912.95" font-family="Times,serif" font-size="14" text-anchor="start">created_at</text><polygon fill="none" stroke="#000" points="335.62 -1884.25 335.62 -1906.75 358.12 -1906.75 358.12 -1884.25 335.62 -1884.25"/><polygon fill="none" stroke="#000" points="358.12 -1884.25 358.12 -1906.75 445.88 -1906.75 445.88 -1884.25 358.12 -1884.25"/><text x="372.38" y="-1890.45" font-family="Times,serif" font-size="14" text-anchor="start">updated_at</text></g><g id="edge1" class="edge"><title>read_notifications:e-&gt;notifications:w</title><path fill="none" stroke="#000" d="M446.88,-1940.5C493.38,-1940.5 507.8,-1940.61 549.17,-1940.62"/><polygon fill="#000" stroke="#000" points="549.11 -1944.12 559.11 -1940.62 549.11 -1937.12 549.11 -1944.12"/></g><g id="edge2" class="edge"><title>read_notifications:e-&gt;users:w</title><path fill="none" stroke="#000" d="M446.88,-1963C492.02,-1963 479.29,-1915.27 491.75,-1871.88 503.74,-1830.12 490.14,-1506.21 525.08,-1457.1"/><polygon fill="#000" stroke="#000" points="526.97 -1460.05 533.48 -1451.69 523.18 -1454.17 526.97 -1460.05"/></g><g id="node12" class="node"><title>refresh_tokens</title><polygon fill="none" stroke="#000" points="345 -1836 345 -1858.5 436.5 -1858.5 436.5 -1836 345 -1836"/><text x="348" y="-1843.2" font-family="Times,serif" font-size="14" font-weight="bold" text-anchor="start">refresh_tokens</text><polygon fill="none" stroke="#000" points="345 -1811.25 345 -1836 370.12 -1836 370.12 -1811.25 345 -1811.25"/><text x="350.44" y="-1819.7" font-family="Times,serif" font-size="14" text-anchor="start">🔑</text><polygon fill="none" stroke="#000" points="370.12 -1811.25 370.12 -1836 436.5 -1836 436.5 -1811.25 370.12 -1811.25"/><text x="398.06" y="-1818.58" font-family="Times,serif" font-size="14" text-anchor="start">id</text><polygon fill="none" stroke="#000" points="345 -1788.75 345 -1811.25 370.12 -1811.25 370.12 -1788.75 345 -1788.75"/><polygon fill="none" stroke="#000" points="370.12 -1788.75 370.12 -1811.25 436.5 -1811.25 436.5 -1788.75 370.12 -1788.75"/><text x="383.44" y="-1794.95" font-family="Times,serif" font-size="14" text-anchor="start">user_id</text><polygon fill="none" stroke="#000" points="345 -1766.25 345 -1788.75 370.12 -1788.75 370.12 -1766.25 345 -1766.25"/><polygon fill="none" stroke="#000" points="370.12 -1766.25 370.12 -1788.75 436.5 -1788.75 436.5 -1766.25 370.12 -1766.25"/><text x="388.31" y="-1772.45" font-family="Times,serif" font-size="14" text-anchor="start">token</text><polygon fill="none" stroke="#000" points="345 -1743.75 345 -1766.25 370.12 -1766.25 370.12 -1743.75 345 -1743.75"/><polygon fill="none" stroke="#000" points="370.12 -1743.75 370.12 -1766.25 436.5 -1766.25 436.5 -1743.75 370.12 -1743.75"/><text x="375.56" y="-1749.95" font-family="Times,serif" font-size="14" text-anchor="start">expires_at</text><polygon fill="none" stroke="#000" points="345 -1721.25 345 -1743.75 370.12 -1743.75 370.12 -1721.25 345 -1721.25"/><polygon fill="none" stroke="#000" points="370.12 -1721.25 370.12 -1743.75 436.5 -1743.75 436.5 -1721.25 370.12 -1721.25"/><text x="375.56" y="-1727.45" font-family="Times,serif" font-size="14" text-anchor="start">created_at</text></g><g id="edge5" class="edge"><title>refresh_tokens:e-&gt;users:w</title><path fill="none" stroke="#000" d="M437.5,-1800C485.02,-1800 475.5,-1752.53 491.75,-1707.88 510.16,-1657.29 481.46,-1478.63 523.86,-1453.76"/><polygon fill="#000" stroke="#000" points="524.52 -1457.2 533.29 -1451.26 522.72 -1450.44 524.52 -1457.2"/></g><g id="node13" class="node"><title>registration_token</title><polygon fill="none" stroke="#000" points="70.62 -2022.75 70.62 -2045.25 183.12 -2045.25 183.12 -2022.75 70.62 -2022.75"/><text x="73.62" y="-2029.95" font-family="Times,serif" font-size="14" font-weight="bold" text-anchor="start">registration_token</text><polygon fill="none" stroke="#000" points="70.62 -1998 70.62 -2022.75 104.38 -2022.75 104.38 -1998 70.62 -1998"/><text x="80.38" y="-2006.45" font-family="Times,serif" font-size="14" text-anchor="start">🔑</text><polygon fill="none" stroke="#000" points="104.38 -1998 104.38 -2022.75 183.12 -2022.75 183.12 -1998 104.38 -1998"/><text x="138.5" y="-2005.33" font-family="Times,serif" font-size="14" text-anchor="start">id</text><polygon fill="none" stroke="#000" points="70.62 -1975.5 70.62 -1998 104.38 -1998 104.38 -1975.5 70.62 -1975.5"/><polygon fill="none" stroke="#000" points="104.38 -1975.5 104.38 -1998 183.12 -1998 183.12 -1975.5 104.38 -1975.5"/><text x="128.75" y="-1981.7" font-family="Times,serif" font-size="14" text-anchor="start">token</text><polygon fill="none" stroke="#000" points="70.62 -1953 70.62 -1975.5 104.38 -1975.5 104.38 -1953 70.62 -1953"/><polygon fill="none" stroke="#000" points="104.38 -1953 104.38 -1975.5 183.12 -1975.5 183.12 -1953 104.38 -1953"/><text x="116" y="-1959.2" font-family="Times,serif" font-size="14" text-anchor="start">created_at</text><polygon fill="none" stroke="#000" points="70.62 -1930.5 70.62 -1953 104.38 -1953 104.38 -1930.5 70.62 -1930.5"/><polygon fill="none" stroke="#000" points="104.38 -1930.5 104.38 -1953 183.12 -1953 183.12 -1930.5 104.38 -1930.5"/><text x="114.12" y="-1936.7" font-family="Times,serif" font-size="14" text-anchor="start">updated_at</text></g><g id="node14" class="node"><title>repositories</title><polygon fill="none" stroke="#000" points="90.12 -2141.5 90.12 -2164 163.62 -2164 163.62 -2141.5 90.12 -2141.5"/><text x="93.12" y="-2148.7" font-family="Times,serif" font-size="14" font-weight="bold" text-anchor="start">repositories</text><polygon fill="none" stroke="#000" points="90.12 -2116.75 90.12 -2141.5 116 -2141.5 116 -2116.75 90.12 -2116.75"/><text x="95.94" y="-2125.2" font-family="Times,serif" font-size="14" text-anchor="start">🔑</text><polygon fill="none" stroke="#000" points="116 -2116.75 116 -2141.5 163.62 -2141.5 163.62 -2116.75 116 -2116.75"/><text x="134.56" y="-2124.07" font-family="Times,serif" font-size="14" text-anchor="start">id</text><polygon fill="none" stroke="#000" points="90.12 -2094.25 90.12 -2116.75 116 -2116.75 116 -2094.25 90.12 -2094.25"/><polygon fill="none" stroke="#000" points="116 -2094.25 116 -2116.75 163.62 -2116.75 163.62 -2094.25 116 -2094.25"/><text x="124.81" y="-2100.45" font-family="Times,serif" font-size="14" text-anchor="start">name</text><polygon fill="none" stroke="#000" points="90.12 -2071.75 90.12 -2094.25 116 -2094.25 116 -2071.75 90.12 -2071.75"/><polygon fill="none" stroke="#000" points="116 -2071.75 116 -2094.25 163.62 -2094.25 163.62 -2071.75 116 -2071.75"/><text x="121.81" y="-2077.95" font-family="Times,serif" font-size="14" text-anchor="start">git_url</text></g><g id="node15" class="node"><title>server_setting</title><polygon fill="none" stroke="#000" points="8 -2305 8 -2327.5 245.75 -2327.5 245.75 -2305 8 -2305"/><text x="86.38" y="-2312.2" font-family="Times,serif" font-size="14" font-weight="bold" text-anchor="start">server_setting</text><polygon fill="none" stroke="#000" points="8 -2280.25 8 -2305 28.25 -2305 28.25 -2280.25 8 -2280.25"/><text x="11" y="-2288.7" font-family="Times,serif" font-size="14" text-anchor="start">🔑</text><polygon fill="none" stroke="#000" points="28.25 -2280.25 28.25 -2305 245.75 -2305 245.75 -2280.25 28.25 -2280.25"/><text x="131.75" y="-2287.57" font-family="Times,serif" font-size="14" text-anchor="start">id</text><polygon fill="none" stroke="#000" points="8 -2257.75 8 -2280.25 28.25 -2280.25 28.25 -2257.75 8 -2257.75"/><polygon fill="none" stroke="#000" points="28.25 -2257.75 28.25 -2280.25 245.75 -2280.25 245.75 -2257.75 28.25 -2257.75"/><text x="31.62" y="-2263.95" font-family="Times,serif" font-size="14" text-anchor="start">security_allowed_register_domain_list</text><polygon fill="none" stroke="#000" points="8 -2235.25 8 -2257.75 28.25 -2257.75 28.25 -2235.25 8 -2235.25"/><polygon fill="none" stroke="#000" points="28.25 -2235.25 28.25 -2257.75 245.75 -2257.75 245.75 -2235.25 28.25 -2235.25"/><text x="31.25" y="-2241.45" font-family="Times,serif" font-size="14" text-anchor="start">security_disable_client_side_telemetry</text><polygon fill="none" stroke="#000" points="8 -2212.75 8 -2235.25 28.25 -2235.25 28.25 -2212.75 8 -2212.75"/><polygon fill="none" stroke="#000" points="28.25 -2212.75 28.25 -2235.25 245.75 -2235.25 245.75 -2212.75 28.25 -2212.75"/><text x="78.88" y="-2218.95" font-family="Times,serif" font-size="14" text-anchor="start">network_external_url</text><polygon fill="none" stroke="#000" points="8 -2190.25 8 -2212.75 28.25 -2212.75 28.25 -2190.25 8 -2190.25"/><polygon fill="none" stroke="#000" points="28.25 -2190.25 28.25 -2212.75 245.75 -2212.75 245.75 -2190.25 28.25 -2190.25"/><text x="67.25" y="-2196.45" font-family="Times,serif" font-size="14" text-anchor="start">billing_enterprise_license</text></g><g id="node16" class="node"><title>source_id_read_access_policies</title><polygon fill="none" stroke="#000" points="297.75 -743 297.75 -765.5 483.75 -765.5 483.75 -743 297.75 -743"/><text x="300.75" y="-750.2" font-family="Times,serif" font-size="14" font-weight="bold" text-anchor="start">source_id_read_access_policies</text><polygon fill="none" stroke="#000" points="297.75 -718.25 297.75 -743 358.88 -743 358.88 -718.25 297.75 -718.25"/><text x="321.19" y="-726.7" font-family="Times,serif" font-size="14" text-anchor="start">🔑</text><polygon fill="none" stroke="#000" points="358.88 -718.25 358.88 -743 483.75 -743 483.75 -718.25 358.88 -718.25"/><text x="416.06" y="-725.58" font-family="Times,serif" font-size="14" text-anchor="start">id</text><polygon fill="none" stroke="#000" points="297.75 -695.75 297.75 -718.25 358.88 -718.25 358.88 -695.75 297.75 -695.75"/><polygon fill="none" stroke="#000" points="358.88 -695.75 358.88 -718.25 483.75 -718.25 483.75 -695.75 358.88 -695.75"/><text x="395.06" y="-701.95" font-family="Times,serif" font-size="14" text-anchor="start">source_id</text><polygon fill="none" stroke="#000" points="297.75 -673.25 297.75 -695.75 358.88 -695.75 358.88 -673.25 297.75 -673.25"/><polygon fill="none" stroke="#000" points="358.88 -673.25 358.88 -695.75 483.75 -695.75 483.75 -673.25 358.88 -673.25"/><text x="382.31" y="-679.45" font-family="Times,serif" font-size="14" text-anchor="start">user_group_id</text><polygon fill="none" stroke="#000" points="297.75 -650.75 297.75 -673.25 358.88 -673.25 358.88 -650.75 297.75 -650.75"/><polygon fill="none" stroke="#000" points="358.88 -650.75 358.88 -673.25 483.75 -673.25 483.75 -650.75 358.88 -650.75"/><text x="393.56" y="-656.95" font-family="Times,serif" font-size="14" text-anchor="start">created_at</text><polygon fill="none" stroke="#000" points="297.75 -628.25 297.75 -650.75 358.88 -650.75 358.88 -628.25 297.75 -628.25"/><polygon fill="none" stroke="#000" points="358.88 -628.25 358.88 -650.75 483.75 -650.75 483.75 -628.25 358.88 -628.25"/><text x="391.69" y="-634.45" font-family="Times,serif" font-size="14" text-anchor="start">updated_at</text></g><g id="node22" class="node"><title>user_groups</title><polygon fill="none" stroke="#000" points="561.62 -790.75 561.62 -813.25 647.12 -813.25 647.12 -790.75 561.62 -790.75"/><text x="568.75" y="-797.95" font-family="Times,serif" font-size="14" font-weight="bold" text-anchor="start">user_groups</text><polygon fill="none" stroke="#000" points="561.62 -766 561.62 -790.75 581.88 -790.75 581.88 -766 561.62 -766"/><text x="564.62" y="-774.45" font-family="Times,serif" font-size="14" text-anchor="start">🔑</text><polygon fill="none" stroke="#000" points="581.88 -766 581.88 -790.75 647.12 -790.75 647.12 -766 581.88 -766"/><text x="609.25" y="-773.33" font-family="Times,serif" font-size="14" text-anchor="start">id</text><polygon fill="none" stroke="#000" points="561.62 -743.5 561.62 -766 581.88 -766 581.88 -743.5 561.62 -743.5"/><polygon fill="none" stroke="#000" points="581.88 -743.5 581.88 -766 647.12 -766 647.12 -743.5 581.88 -743.5"/><text x="599.5" y="-749.7" font-family="Times,serif" font-size="14" text-anchor="start">name</text><polygon fill="none" stroke="#000" points="561.62 -721 561.62 -743.5 581.88 -743.5 581.88 -721 561.62 -721"/><polygon fill="none" stroke="#000" points="581.88 -721 581.88 -743.5 647.12 -743.5 647.12 -721 581.88 -721"/><text x="586.75" y="-727.2" font-family="Times,serif" font-size="14" text-anchor="start">created_at</text><polygon fill="none" stroke="#000" points="561.62 -698.5 561.62 -721 581.88 -721 581.88 -698.5 561.62 -698.5"/><polygon fill="none" stroke="#000" points="581.88 -698.5 581.88 -721 647.12 -721 647.12 -698.5 581.88 -698.5"/><text x="584.88" y="-704.7" font-family="Times,serif" font-size="14" text-anchor="start">updated_at</text></g><g id="edge3" class="edge"><title>source_id_read_access_policies:e-&gt;user_groups:w</title><path fill="none" stroke="#000" d="M484.75,-684.5C534.21,-684.5 511.37,-764.28 549.53,-776.75"/><polygon fill="#000" stroke="#000" points="548.73 -780.17 559.13 -778.16 549.74 -773.24 548.73 -780.17"/></g><g id="node17" class="node"><title>thread_messages</title><polygon fill="none" stroke="#000" points="46.62 -1696.25 46.62 -1718.75 207.12 -1718.75 207.12 -1696.25 46.62 -1696.25"/><text x="77.75" y="-1703.45" font-family="Times,serif" font-size="14" font-weight="bold" text-anchor="start">thread_messages</text><polygon fill="none" stroke="#000" points="46.62 -1671.5 46.62 -1696.25 66.88 -1696.25 66.88 -1671.5 46.62 -1671.5"/><text x="49.62" y="-1679.95" font-family="Times,serif" font-size="14" text-anchor="start">🔑</text><polygon fill="none" stroke="#000" points="66.88 -1671.5 66.88 -1696.25 207.12 -1696.25 207.12 -1671.5 66.88 -1671.5"/><text x="131.75" y="-1678.83" font-family="Times,serif" font-size="14" text-anchor="start">id</text><polygon fill="none" stroke="#000" points="46.62 -1649 46.62 -1671.5 66.88 -1671.5 66.88 -1649 46.62 -1649"/><polygon fill="none" stroke="#000" points="66.88 -1649 66.88 -1671.5 207.12 -1671.5 207.12 -1649 66.88 -1649"/><text x="111.5" y="-1655.2" font-family="Times,serif" font-size="14" text-anchor="start">thread_id</text><polygon fill="none" stroke="#000" points="46.62 -1626.5 46.62 -1649 66.88 -1649 66.88 -1626.5 46.62 -1626.5"/><polygon fill="none" stroke="#000" points="66.88 -1626.5 66.88 -1649 207.12 -1649 207.12 -1626.5 66.88 -1626.5"/><text x="126.5" y="-1632.7" font-family="Times,serif" font-size="14" text-anchor="start">role</text><polygon fill="none" stroke="#000" points="46.62 -1604 46.62 -1626.5 66.88 -1626.5 66.88 -1604 46.62 -1604"/><polygon fill="none" stroke="#000" points="66.88 -1604 66.88 -1626.5 207.12 -1626.5 207.12 -1604 66.88 -1604"/><text x="117.12" y="-1610.2" font-family="Times,serif" font-size="14" text-anchor="start">content</text><polygon fill="none" stroke="#000" points="46.62 -1581.5 46.62 -1604 66.88 -1604 66.88 -1581.5 46.62 -1581.5"/><polygon fill="none" stroke="#000" points="66.88 -1581.5 66.88 -1604 207.12 -1604 207.12 -1581.5 66.88 -1581.5"/><text x="88.25" y="-1587.7" font-family="Times,serif" font-size="14" text-anchor="start">code_attachments</text><polygon fill="none" stroke="#000" points="46.62 -1559 46.62 -1581.5 66.88 -1581.5 66.88 -1559 46.62 -1559"/><polygon fill="none" stroke="#000" points="66.88 -1559 66.88 -1581.5 207.12 -1581.5 207.12 -1559 66.88 -1559"/><text x="69.88" y="-1565.2" font-family="Times,serif" font-size="14" text-anchor="start">client_code_attachments</text><polygon fill="none" stroke="#000" points="46.62 -1536.5 46.62 -1559 66.88 -1559 66.88 -1536.5 46.62 -1536.5"/><polygon fill="none" stroke="#000" points="66.88 -1536.5 66.88 -1559 207.12 -1559 207.12 -1536.5 66.88 -1536.5"/><text x="91.25" y="-1542.7" font-family="Times,serif" font-size="14" text-anchor="start">doc_attachments</text><polygon fill="none" stroke="#000" points="46.62 -1514 46.62 -1536.5 66.88 -1536.5 66.88 -1514 46.62 -1514"/><polygon fill="none" stroke="#000" points="66.88 -1514 66.88 -1536.5 207.12 -1536.5 207.12 -1514 66.88 -1514"/><text x="109.25" y="-1520.2" font-family="Times,serif" font-size="14" text-anchor="start">created_at</text><polygon fill="none" stroke="#000" points="46.62 -1491.5 46.62 -1514 66.88 -1514 66.88 -1491.5 46.62 -1491.5"/><polygon fill="none" stroke="#000" points="66.88 -1491.5 66.88 -1514 207.12 -1514 207.12 -1491.5 66.88 -1491.5"/><text x="107.38" y="-1497.7" font-family="Times,serif" font-size="14" text-anchor="start">updated_at</text><polygon fill="none" stroke="#000" points="46.62 -1469 46.62 -1491.5 66.88 -1491.5 66.88 -1469 46.62 -1469"/><polygon fill="none" stroke="#000" points="66.88 -1469 66.88 -1491.5 207.12 -1491.5 207.12 -1469 66.88 -1469"/><text x="94.62" y="-1475.2" font-family="Times,serif" font-size="14" text-anchor="start">code_source_id</text></g><g id="node18" class="node"><title>threads</title><polygon fill="none" stroke="#000" points="327 -1672.25 327 -1694.75 454.5 -1694.75 454.5 -1672.25 327 -1672.25"/><text x="369" y="-1679.45" font-family="Times,serif" font-size="14" font-weight="bold" text-anchor="start">threads</text><polygon fill="none" stroke="#000" points="327 -1647.5 327 -1672.25 347.25 -1672.25 347.25 -1647.5 327 -1647.5"/><text x="330" y="-1655.95" font-family="Times,serif" font-size="14" text-anchor="start">🔑</text><polygon fill="none" stroke="#000" points="347.25 -1647.5 347.25 -1672.25 454.5 -1672.25 454.5 -1647.5 347.25 -1647.5"/><text x="395.62" y="-1654.83" font-family="Times,serif" font-size="14" text-anchor="start">id</text><polygon fill="none" stroke="#000" points="327 -1625 327 -1647.5 347.25 -1647.5 347.25 -1625 327 -1625"/><polygon fill="none" stroke="#000" points="347.25 -1625 347.25 -1647.5 454.5 -1647.5 454.5 -1625 347.25 -1625"/><text x="364.5" y="-1631.2" font-family="Times,serif" font-size="14" text-anchor="start">is_ephemeral</text><polygon fill="none" stroke="#000" points="327 -1602.5 327 -1625 347.25 -1625 347.25 -1602.5 327 -1602.5"/><polygon fill="none" stroke="#000" points="347.25 -1602.5 347.25 -1625 454.5 -1625 454.5 -1602.5 347.25 -1602.5"/><text x="381" y="-1608.7" font-family="Times,serif" font-size="14" text-anchor="start">user_id</text><polygon fill="none" stroke="#000" points="327 -1580 327 -1602.5 347.25 -1602.5 347.25 -1580 327 -1580"/><polygon fill="none" stroke="#000" points="347.25 -1580 347.25 -1602.5 454.5 -1602.5 454.5 -1580 347.25 -1580"/><text x="373.12" y="-1586.2" font-family="Times,serif" font-size="14" text-anchor="start">created_at</text><polygon fill="none" stroke="#000" points="327 -1557.5 327 -1580 347.25 -1580 347.25 -1557.5 327 -1557.5"/><polygon fill="none" stroke="#000" points="347.25 -1557.5 347.25 -1580 454.5 -1580 454.5 -1557.5 347.25 -1557.5"/><text x="371.25" y="-1563.7" font-family="Times,serif" font-size="14" text-anchor="start">updated_at</text><polygon fill="none" stroke="#000" points="327 -1535 327 -1557.5 347.25 -1557.5 347.25 -1535 327 -1535"/><polygon fill="none" stroke="#000" points="347.25 -1535 347.25 -1557.5 454.5 -1557.5 454.5 -1535 347.25 -1535"/><text x="350.25" y="-1541.2" font-family="Times,serif" font-size="14" text-anchor="start">relevant_questions</text></g><g id="edge4" class="edge"><title>thread_messages:e-&gt;threads:w</title><path fill="none" stroke="#000" d="M208.12,-1660.25C256.52,-1660.25 271.39,-1659.93 314.68,-1659.88"/><polygon fill="#000" stroke="#000" points="314.49 -1663.38 324.49 -1659.88 314.48 -1656.38 314.49 -1663.38"/></g><g id="edge11" class="edge"><title>threads:e-&gt;users:w</title><path fill="none" stroke="#000" d="M455.5,-1613.75C531.76,-1613.75 462.42,-1467.6 523.32,-1452.19"/><polygon fill="#000" stroke="#000" points="523.71 -1455.66 533.25 -1451.05 522.91 -1448.71 523.71 -1455.66"/></g><g id="node19" class="node"><title>user_completions</title><polygon fill="none" stroke="#000" points="337.12 -1486 337.12 -1508.5 444.38 -1508.5 444.38 -1486 337.12 -1486"/><text x="340.12" y="-1493.2" font-family="Times,serif" font-size="14" font-weight="bold" text-anchor="start">user_completions</text><polygon fill="none" stroke="#000" points="337.12 -1461.25 337.12 -1486 358.5 -1486 358.5 -1461.25 337.12 -1461.25"/><text x="340.69" y="-1469.7" font-family="Times,serif" font-size="14" text-anchor="start">🔑</text><polygon fill="none" stroke="#000" points="358.5 -1461.25 358.5 -1486 444.38 -1486 444.38 -1461.25 358.5 -1461.25"/><text x="396.19" y="-1468.58" font-family="Times,serif" font-size="14" text-anchor="start">id</text><polygon fill="none" stroke="#000" points="337.12 -1438.75 337.12 -1461.25 358.5 -1461.25 358.5 -1438.75 337.12 -1438.75"/><polygon fill="none" stroke="#000" points="358.5 -1438.75 358.5 -1461.25 444.38 -1461.25 444.38 -1438.75 358.5 -1438.75"/><text x="381.56" y="-1444.95" font-family="Times,serif" font-size="14" text-anchor="start">user_id</text><polygon fill="none" stroke="#000" points="337.12 -1416.25 337.12 -1438.75 358.5 -1438.75 358.5 -1416.25 337.12 -1416.25"/><polygon fill="none" stroke="#000" points="358.5 -1416.25 358.5 -1438.75 444.38 -1438.75 444.38 -1416.25 358.5 -1416.25"/><text x="362.06" y="-1422.45" font-family="Times,serif" font-size="14" text-anchor="start">completion_id</text><polygon fill="none" stroke="#000" points="337.12 -1393.75 337.12 -1416.25 358.5 -1416.25 358.5 -1393.75 337.12 -1393.75"/><polygon fill="none" stroke="#000" points="358.5 -1393.75 358.5 -1416.25 444.38 -1416.25 444.38 -1393.75 358.5 -1393.75"/><text x="377.06" y="-1399.95" font-family="Times,serif" font-size="14" text-anchor="start">language</text><polygon fill="none" stroke="#000" points="337.12 -1371.25 337.12 -1393.75 358.5 -1393.75 358.5 -1371.25 337.12 -1371.25"/><polygon fill="none" stroke="#000" points="358.5 -1371.25 358.5 -1393.75 444.38 -1393.75 444.38 -1371.25 358.5 -1371.25"/><text x="385.69" y="-1377.45" font-family="Times,serif" font-size="14" text-anchor="start">views</text><polygon fill="none" stroke="#000" points="337.12 -1348.75 337.12 -1371.25 358.5 -1371.25 358.5 -1348.75 337.12 -1348.75"/><polygon fill="none" stroke="#000" points="358.5 -1348.75 358.5 -1371.25 444.38 -1371.25 444.38 -1348.75 358.5 -1348.75"/><text x="383.44" y="-1354.95" font-family="Times,serif" font-size="14" text-anchor="start">selects</text><polygon fill="none" stroke="#000" points="337.12 -1326.25 337.12 -1348.75 358.5 -1348.75 358.5 -1326.25 337.12 -1326.25"/><polygon fill="none" stroke="#000" points="358.5 -1326.25 358.5 -1348.75 444.38 -1348.75 444.38 -1326.25 358.5 -1326.25"/><text x="375.19" y="-1332.45" font-family="Times,serif" font-size="14" text-anchor="start">dismisses</text><polygon fill="none" stroke="#000" points="337.12 -1303.75 337.12 -1326.25 358.5 -1326.25 358.5 -1303.75 337.12 -1303.75"/><polygon fill="none" stroke="#000" points="358.5 -1303.75 358.5 -1326.25 444.38 -1326.25 444.38 -1303.75 358.5 -1303.75"/><text x="373.69" y="-1309.95" font-family="Times,serif" font-size="14" text-anchor="start">created_at</text><polygon fill="none" stroke="#000" points="337.12 -1281.25 337.12 -1303.75 358.5 -1303.75 358.5 -1281.25 337.12 -1281.25"/><polygon fill="none" stroke="#000" points="358.5 -1281.25 358.5 -1303.75 444.38 -1303.75 444.38 -1281.25 358.5 -1281.25"/><text x="371.81" y="-1287.45" font-family="Times,serif" font-size="14" text-anchor="start">updated_at</text></g><g id="edge7" class="edge"><title>user_completions:e-&gt;users:w</title><path fill="none" stroke="#000" d="M445.38,-1450C481.06,-1450 492.7,-1450.71 523.51,-1450.85"/><polygon fill="#000" stroke="#000" points="523.23 -1454.35 533.24 -1450.87 523.24 -1447.35 523.23 -1454.35"/></g><g id="node20" class="node"><title>user_events</title><polygon fill="none" stroke="#000" points="349.88 -1233 349.88 -1255.5 431.62 -1255.5 431.62 -1233 349.88 -1233"/><text x="357" y="-1240.2" font-family="Times,serif" font-size="14" font-weight="bold" text-anchor="start">user_events</text><polygon fill="none" stroke="#000" points="349.88 -1208.25 349.88 -1233 370.12 -1233 370.12 -1208.25 349.88 -1208.25"/><text x="352.88" y="-1216.7" font-family="Times,serif" font-size="14" text-anchor="start">🔑</text><polygon fill="none" stroke="#000" points="370.12 -1208.25 370.12 -1233 431.62 -1233 431.62 -1208.25 370.12 -1208.25"/><text x="395.62" y="-1215.58" font-family="Times,serif" font-size="14" text-anchor="start">id</text><polygon fill="none" stroke="#000" points="349.88 -1185.75 349.88 -1208.25 370.12 -1208.25 370.12 -1185.75 349.88 -1185.75"/><polygon fill="none" stroke="#000" points="370.12 -1185.75 370.12 -1208.25 431.62 -1208.25 431.62 -1185.75 370.12 -1185.75"/><text x="381" y="-1191.95" font-family="Times,serif" font-size="14" text-anchor="start">user_id</text><polygon fill="none" stroke="#000" points="349.88 -1163.25 349.88 -1185.75 370.12 -1185.75 370.12 -1163.25 349.88 -1163.25"/><polygon fill="none" stroke="#000" points="370.12 -1163.25 370.12 -1185.75 431.62 -1185.75 431.62 -1163.25 370.12 -1163.25"/><text x="388.88" y="-1169.45" font-family="Times,serif" font-size="14" text-anchor="start">kind</text><polygon fill="none" stroke="#000" points="349.88 -1140.75 349.88 -1163.25 370.12 -1163.25 370.12 -1140.75 349.88 -1140.75"/><polygon fill="none" stroke="#000" points="370.12 -1140.75 370.12 -1163.25 431.62 -1163.25 431.62 -1140.75 370.12 -1140.75"/><text x="373.12" y="-1146.95" font-family="Times,serif" font-size="14" text-anchor="start">created_at</text><polygon fill="none" stroke="#000" points="349.88 -1118.25 349.88 -1140.75 370.12 -1140.75 370.12 -1118.25 349.88 -1118.25"/><polygon fill="none" stroke="#000" points="370.12 -1118.25 370.12 -1140.75 431.62 -1140.75 431.62 -1118.25 370.12 -1118.25"/><text x="379.5" y="-1124.45" font-family="Times,serif" font-size="14" text-anchor="start">payload</text></g><g id="edge6" class="edge"><title>user_events:e-&gt;users:w</title><path fill="none" stroke="#000" d="M432.62,-1197C473.65,-1197 473.43,-1231.17 491.75,-1267.88 527.25,-1338.98 458.53,-1440.38 523.63,-1450.12"/><polygon fill="#000" stroke="#000" points="523.03 -1453.58 533.24 -1450.77 523.5 -1446.6 523.03 -1453.58"/></g><g id="node21" class="node"><title>user_group_memberships</title><polygon fill="none" stroke="#000" points="312 -929.25 312 -951.75 469.5 -951.75 469.5 -929.25 312 -929.25"/><text x="315" y="-936.45" font-family="Times,serif" font-size="14" font-weight="bold" text-anchor="start">user_group_memberships</text><polygon fill="none" stroke="#000" points="312 -904.5 312 -929.25 353.62 -929.25 353.62 -904.5 312 -904.5"/><text x="325.69" y="-912.95" font-family="Times,serif" font-size="14" text-anchor="start">🔑</text><polygon fill="none" stroke="#000" points="353.62 -904.5 353.62 -929.25 469.5 -929.25 469.5 -904.5 353.62 -904.5"/><text x="406.31" y="-911.83" font-family="Times,serif" font-size="14" text-anchor="start">id</text><polygon fill="none" stroke="#000" points="312 -882 312 -904.5 353.62 -904.5 353.62 -882 312 -882"/><polygon fill="none" stroke="#000" points="353.62 -882 353.62 -904.5 469.5 -904.5 469.5 -882 353.62 -882"/><text x="391.69" y="-888.2" font-family="Times,serif" font-size="14" text-anchor="start">user_id</text><polygon fill="none" stroke="#000" points="312 -859.5 312 -882 353.62 -882 353.62 -859.5 312 -859.5"/><polygon fill="none" stroke="#000" points="353.62 -859.5 353.62 -882 469.5 -882 469.5 -859.5 353.62 -859.5"/><text x="372.56" y="-865.7" font-family="Times,serif" font-size="14" text-anchor="start">user_group_id</text><polygon fill="none" stroke="#000" points="312 -837 312 -859.5 353.62 -859.5 353.62 -837 312 -837"/><polygon fill="none" stroke="#000" points="353.62 -837 353.62 -859.5 469.5 -859.5 469.5 -837 353.62 -837"/><text x="367.31" y="-843.2" font-family="Times,serif" font-size="14" text-anchor="start">is_group_admin</text><polygon fill="none" stroke="#000" points="312 -814.5 312 -837 353.62 -837 353.62 -814.5 312 -814.5"/><polygon fill="none" stroke="#000" points="353.62 -814.5 353.62 -837 469.5 -837 469.5 -814.5 353.62 -814.5"/><text x="383.81" y="-820.7" font-family="Times,serif" font-size="14" text-anchor="start">created_at</text><polygon fill="none" stroke="#000" points="312 -792 312 -814.5 353.62 -814.5 353.62 -792 312 -792"/><polygon fill="none" stroke="#000" points="353.62 -792 353.62 -814.5 469.5 -814.5 469.5 -792 353.62 -792"/><text x="381.94" y="-798.2" font-family="Times,serif" font-size="14" text-anchor="start">updated_at</text></g><g id="edge8" class="edge"><title>user_group_memberships:e-&gt;user_groups:w</title><path fill="none" stroke="#000" d="M470.5,-870.75C523.71,-870.75 506.39,-791.24 549.41,-779.75"/><polygon fill="#000" stroke="#000" points="549.62 -783.25 559.12 -778.56 548.77 -776.31 549.62 -783.25"/></g><g id="edge9" class="edge"><title>user_group_memberships:e-&gt;users:w</title><path fill="none" stroke="#000" d="M470.5,-893.25C529.21,-893.25 479.05,-1387.44 525,-1445.36"/><polygon fill="#000" stroke="#000" points="523.01 -1448.25 533.43 -1450.13 526.46 -1442.16 523.01 -1448.25"/></g><g id="node24" class="node"><title>web_documents</title><polygon fill="none" stroke="#000" points="77.38 -2491.25 77.38 -2513.75 176.38 -2513.75 176.38 -2491.25 77.38 -2491.25"/><text x="80.38" y="-2498.45" font-family="Times,serif" font-size="14" font-weight="bold" text-anchor="start">web_documents</text><polygon fill="none" stroke="#000" points="77.38 -2466.5 77.38 -2491.25 104.38 -2491.25 104.38 -2466.5 77.38 -2466.5"/><text x="83.75" y="-2474.95" font-family="Times,serif" font-size="14" text-anchor="start">🔑</text><polygon fill="none" stroke="#000" points="104.38 -2466.5 104.38 -2491.25 176.38 -2491.25 176.38 -2466.5 104.38 -2466.5"/><text x="135.12" y="-2473.82" font-family="Times,serif" font-size="14" text-anchor="start">id</text><polygon fill="none" stroke="#000" points="77.38 -2444 77.38 -2466.5 104.38 -2466.5 104.38 -2444 77.38 -2444"/><polygon fill="none" stroke="#000" points="104.38 -2444 104.38 -2466.5 176.38 -2466.5 176.38 -2444 104.38 -2444"/><text x="125.38" y="-2450.2" font-family="Times,serif" font-size="14" text-anchor="start">name</text><polygon fill="none" stroke="#000" points="77.38 -2421.5 77.38 -2444 104.38 -2444 104.38 -2421.5 77.38 -2421.5"/><polygon fill="none" stroke="#000" points="104.38 -2421.5 104.38 -2444 176.38 -2444 176.38 -2421.5 104.38 -2421.5"/><text x="132.88" y="-2427.7" font-family="Times,serif" font-size="14" text-anchor="start">url</text><polygon fill="none" stroke="#000" points="77.38 -2399 77.38 -2421.5 104.38 -2421.5 104.38 -2399 77.38 -2399"/><polygon fill="none" stroke="#000" points="104.38 -2399 104.38 -2421.5 176.38 -2421.5 176.38 -2399 104.38 -2399"/><text x="116.38" y="-2405.2" font-family="Times,serif" font-size="14" text-anchor="start">is_preset</text><polygon fill="none" stroke="#000" points="77.38 -2376.5 77.38 -2399 104.38 -2399 104.38 -2376.5 77.38 -2376.5"/><polygon fill="none" stroke="#000" points="104.38 -2376.5 104.38 -2399 176.38 -2399 176.38 -2376.5 104.38 -2376.5"/><text x="112.62" y="-2382.7" font-family="Times,serif" font-size="14" text-anchor="start">created_at</text><polygon fill="none" stroke="#000" points="77.38 -2354 77.38 -2376.5 104.38 -2376.5 104.38 -2354 77.38 -2354"/><polygon fill="none" stroke="#000" points="104.38 -2354 104.38 -2376.5 176.38 -2376.5 176.38 -2354 104.38 -2354"/><text x="110.75" y="-2360.2" font-family="Times,serif" font-size="14" text-anchor="start">updated_at</text></g></g></svg>